<?xml version="1.0" standalone="no"?>
<!DOCTYPE svg PUBLIC "-//W3C//DTD SVG 20010904//EN"
 "http://www.w3.org/TR/2001/REC-SVG-20010904/DTD/svg10.dtd">
<svg version="1.0" xmlns="http://www.w3.org/2000/svg"
 width="700.000000pt" height="700.000000pt" viewBox="0 0 700.000000 700.000000"
 preserveAspectRatio="xMidYMid meet">
<metadata>
Created by potrace 1.11, written by Peter Selinger 2001-2013
</metadata>
<g transform="translate(0.000000,700.000000) scale(0.100000,-0.100000)"
fill="#000000" stroke="none">
<path d="M84 5933 c3 -10 8 -36 12 -58 9 -56 8 -51 49 -250 20 -99 38 -192 40
-207 2 -15 6 -35 9 -45 3 -10 7 -29 10 -43 4 -24 15 -88 21 -120 3 -16 78
-393 89 -445 11 -55 47 -240 52 -265 2 -14 9 -47 15 -75 6 -27 13 -61 15 -75
4 -21 18 -92 39 -200 3 -14 7 -36 10 -50 2 -14 14 -72 26 -130 11 -58 23 -116
25 -130 3 -14 16 -81 30 -150 13 -69 26 -136 29 -150 3 -14 41 -207 85 -430
43 -223 87 -444 96 -493 l17 -87 2721 2 2720 3 23 120 c31 158 73 375 79 400
11 53 104 532 110 565 2 14 9 45 14 70 5 25 12 56 14 70 2 14 16 81 30 150 13
69 30 152 36 185 6 33 13 69 15 80 7 34 114 571 120 602 3 15 7 42 10 58 4 17
13 64 22 105 20 100 20 102 27 145 4 20 13 67 21 103 8 37 16 78 19 92 6 36
43 226 73 370 14 69 27 139 30 155 2 17 8 46 14 65 5 19 9 45 9 58 l0 22 -671
-2 -671 -3 -145 -370 c-80 -203 -151 -383 -158 -400 -7 -16 -29 -73 -49 -125
-21 -52 -70 -177 -109 -278 l-72 -182 -3 680 -2 680 -1520 0 -1520 0 0 -22 c0
-13 -1 -319 -1 -681 0 -363 -2 -657 -4 -655 -2 1 -17 39 -34 83 -18 44 -36 89
-41 100 -4 11 -40 101 -78 200 -39 99 -100 257 -137 350 -36 94 -89 229 -117
300 -28 72 -68 173 -88 225 l-38 95 -662 3 c-627 2 -661 1 -656 -15z"/>
<path d="M999 2288 c-1 -2 -2 -117 -3 -256 -1 -246 0 -252 19 -253 11 0 435
-1 943 -1 l922 -1 0 -91 c0 -50 2 -359 3 -686 l2 -595 590 -1 590 0 0 685 0
686 930 2 c512 1 936 2 943 2 9 1 12 59 12 256 l0 255 -2475 0 c-1361 0 -2475
-1 -2476 -2z"/>
</g>
</svg>
