<svg xmlns="http://www.w3.org/2000/svg" width="62" height="58.969" viewBox="0 0 62 58.969"><defs><style>.cls-1{fill:#616161;fill-rule:evenodd}</style></defs><path id="Computer_iMac" data-name="Computer/iMac" class="cls-1" d="M629 633v5.8c0 2-3.646 4.177-3.646 4.177s-1.208 2.063.584 2H650s1.667-.832.833-1.666-3.843-1.74-3.843-4.4v-5.906zm-19-47h56a3 3 0 0 1 3 3v40a3 3 0 0 1-3 3h-56a3 3 0 0 1-3-3v-40a3 3 0 0 1 3-3zm1 3.953h54V622.016h-53.99v-28zM639.405 623a1.451 1.451 0 0 1-1.417 1.626 1.556 1.556 0 0 1 1.417-1.626zm-.207 1.7a1.632 1.632 0 0 1 1.489.7l-.014.021a1.532 1.532 0 0 0-.688 1.769 1.5 1.5 0 0 0 .888.988 2.145 2.145 0 0 1-.236.572 2.179 2.179 0 0 1-1.26 1.3c-.522.085-.793-.365-1.368-.273a2.542 2.542 0 0 1-1.3.237 3.084 3.084 0 0 1-1.217-1.518 5.338 5.338 0 0 1-.323-1.081 2.079 2.079 0 0 1 1.6-2.692 3.3 3.3 0 0 1 1.239.308 2.737 2.737 0 0 0 .78-.244z" transform="translate(-607 -586)"/></svg>