<svg xmlns="http://www.w3.org/2000/svg" width="60" height="60" viewBox="0 0 8500 11000" shape-rendering="geometricPrecision" text-rendering="geometricPrecision" image-rendering="optimizeQuality" fill-rule="evenodd" clip-rule="evenodd"><defs><style>.fil0{fill:#e9a0c4}.fil1{fill:#fff}</style></defs><g id="Layer_x0020_1"><path class="fil0" d="M4361 5492c14-5 28-9 43-13-35-78-74-160-118-248-799 237-1564 239-1701 237-1 10-1 21-1 32 0 402 145 788 407 1091 88-142 552-834 1370-1099zM3240 6823c293 224 642 343 1010 343 220 0 433-42 635-125-28-162-125-655-349-1242-902 319-1242 919-1296 1024zm2096-2587c-302-259-687-402-1086-402-121 0-242 13-361 40 87 117 353 487 604 945 545-210 791-512 843-583zm-1211 696c-259-455-528-831-602-931-453 220-787 640-898 1130h7c173 0 786-14 1493-199zm768 779c198 549 289 1006 315 1152 362-255 609-646 684-1081-74-22-341-94-677-94-109 0-218 8-322 23zm-643-4291c-2253 0-4080 1827-4080 4080s1827 4080 4080 4080 4080-1827 4080-4080-1827-4080-4080-4080zm0 6076c-1102 0-1997-895-1997-1996 0-1102 895-1997 1997-1997 1101 0 1997 896 1997 1997s-896 1996-1997 1996zm392-2390c37 77 71 152 103 226 9 24 20 48 30 72 118-14 243-20 375-20 363 0 664 53 765 73-9-362-137-713-362-995-68 88-348 409-911 644z"/><path class="fil1" d="M4642 5106c563-235 843-556 911-644 225 282 353 633 362 995-101-20-402-73-765-73-132 0-257 6-375 20-10-24-21-48-30-72-32-74-66-149-103-226zm-356 125c44 88 83 170 118 248-15 4-29 8-43 13-818 265-1282 957-1370 1099-262-303-407-689-407-1091 0-11 0-22 1-32 137 2 902 0 1701-237zM3240 6823c54-105 394-705 1296-1024 224 587 321 1080 349 1242-202 83-415 125-635 125-368 0-717-119-1010-343zm2096-2587c-52 71-298 373-843 583-251-458-517-828-604-945 119-27 240-40 361-40 399 0 784 143 1086 402zm-1813-235c74 100 343 476 602 931-707 185-1320 199-1493 199h-7c111-490 445-910 898-1130zm1370 1710c104-15 213-23 322-23 336 0 603 72 677 94-75 435-322 826-684 1081-26-146-117-603-315-1152zm1354-211c0-1101-896-1997-1997-1997-1102 0-1997 895-1997 1997 0 1101 895 1996 1997 1996 1101 0 1997-895 1997-1996z"/></g></svg>