<svg xmlns="http://www.w3.org/2000/svg" width="816" height="11in" viewBox="0 0 8500 11000" shape-rendering="geometricPrecision" text-rendering="geometricPrecision" image-rendering="optimizeQuality" fill-rule="evenodd" clip-rule="evenodd"><defs><style>.fil1{fill:#fefefe}.fil0{fill:#5883c0}</style></defs><g id="Layer_x0020_1"><path class="fil0" d="M4250 1420c-2253 0-4080 1827-4080 4080s1827 4080 4080 4080 4080-1827 4080-4080-1827-4080-4080-4080zm966 2819h-613c-72 0-153 96-153 223v443h767l-116 632h-651v1895h-724V5537h-657v-632h657v-371c0-533 370-966 877-966h613v671z"/><path class="fil1" d="M3726 4534v371h-657v632h657v1895h724V5537h651l116-632h-767v-443c0-127 81-223 153-223h613v-671h-613c-507 0-877 433-877 966z"/><path class="fil1" d="M3726 4534v371h-657v632h657v1895h724V5537h651l116-632h-767v-443c0-127 81-223 153-223h613v-671h-613c-507 0-877 433-877 966z"/></g></svg>