<svg xmlns="http://www.w3.org/2000/svg" width="20" height="20" viewBox="0 0 8500 11000" shape-rendering="geometricPrecision" text-rendering="geometricPrecision" image-rendering="optimizeQuality" fill-rule="evenodd" clip-rule="evenodd"><path d="M7334 6458c-41-284-260-505-542-571-1095-257-1369-887-1416-1587-194-36-539-75-1126-75-586 0-932 39-1126 75-47 700-321 1330-1416 1587-282 66-501 287-542 571L955 7920c-74 515 304 980 830 980h4930c526 0 904-465 830-980l-211-1462zM4250 7834c-593 0-1074-476-1074-1062 0-587 481-1063 1074-1063s1074 476 1074 1063c0 586-482 1062-1074 1062zm4229-4034c-10-637-1633-1700-4229-1700S31 3163 21 3800c-10 638 9 1467 1078 1329 1250-162 1173-598 1173-1222 0-436 1016-540 1978-540s1978 104 1978 540c0 624-77 1060 1173 1222 1068 138 1088-691 1078-1329z" fill="#ff6760"/></svg>