<svg xmlns="http://www.w3.org/2000/svg" width="60" height="60" viewBox="0 0 8500 11000" shape-rendering="geometricPrecision" text-rendering="geometricPrecision" image-rendering="optimizeQuality" fill-rule="evenodd" clip-rule="evenodd"><defs><style>.fil0{fill:#d35051}.fil1{fill:#fff}</style></defs><g id="Layer_x0020_1"><path class="fil0" d="M4250 1420c-2253 0-4080 1827-4080 4080s1827 4080 4080 4080 4080-1827 4080-4080-1827-4080-4080-4080zm279 5047c-262-20-371-150-576-274-113 591-250 1158-658 1455-127-895 184-1565 329-2278-247-414 29-1248 548-1043 639 253-553 1541 247 1702 836 167 1177-1450 659-1976-749-759-2179-17-2003 1070 42 266 317 346 110 713-479-106-623-484-604-988 29-824 741-1402 1454-1481 902-100 1749 331 1866 1180 131 958-407 1995-1372 1920z"/><path class="fil1" d="M4172 4327c-519-205-795 629-548 1043-145 713-456 1383-329 2278 408-297 545-864 658-1455 205 124 314 254 576 274 965 75 1503-962 1372-1920-117-849-964-1280-1866-1180-713 79-1425 657-1454 1481-19 504 125 882 604 988 207-367-68-447-110-713-176-1087 1254-1829 2003-1070 518 526 177 2143-659 1976-800-161 392-1449-247-1702z"/></g></svg>