<svg xmlns="http://www.w3.org/2000/svg" width="60" height="60" viewBox="0 0 8500 11000" shape-rendering="geometricPrecision" text-rendering="geometricPrecision" image-rendering="optimizeQuality" fill-rule="evenodd" clip-rule="evenodd"><circle cx="4250" cy="5500" r="4080" fill="#f3b25b"/><path d="M2156 3407v652c1952 0 3534 1582 3534 3534h653c0-2312-1874-4186-4187-4186zm0 1304v653c1231 0 2230 998 2230 2229h652c0-1591-1290-2882-2882-2882zm625 1632c-345 0-625 280-625 625s280 625 625 625c346 0 625-279 625-625 0-345-279-625-625-625z" fill="#fff"/></svg>