<svg xmlns="http://www.w3.org/2000/svg" width="816" height="11in" viewBox="0 0 8500 11000" shape-rendering="geometricPrecision" text-rendering="geometricPrecision" image-rendering="optimizeQuality" fill-rule="evenodd" clip-rule="evenodd"><defs><style>.fil0{fill:#63bee0}.fil1{fill:#fff}</style></defs><g id="Layer_x0020_1"><path class="fil0" d="M4250 1420c-2253 0-4080 1827-4080 4080s1827 4080 4080 4080 4080-1827 4080-4080-1827-4080-4080-4080zm1660 3342c1 35 2 70 2 104 0 1062-808 2287-2286 2287-454 0-877-133-1232-361 63 7 127 10 192 10 376 0 723-128 998-344-352-6-649-238-751-557 49 9 99 14 151 14 73 0 144-10 212-28-368-74-645-399-645-788v-10c108 60 232 97 364 101-216-145-357-390-357-670 0-147 39-285 108-404 397 486 989 806 1657 840-14-59-21-120-21-183 0-443 359-804 804-804 230 0 439 98 586 254 183-36 355-103 510-195-60 188-187 345-353 445 163-20 317-63 461-127-107 161-244 303-400 416z"/><path class="fil1" d="M4323 4956c-668-34-1260-354-1657-840-69 119-108 257-108 404 0 280 141 525 357 670-132-4-256-41-364-101v10c0 389 277 714 645 788-68 18-139 28-212 28-52 0-102-5-151-14 102 319 399 551 751 557-275 216-622 344-998 344-65 0-129-3-192-10 355 228 778 361 1232 361 1478 0 2286-1225 2286-2287 0-34-1-69-2-104 156-113 293-255 400-416-144 64-298 107-461 127 166-100 293-257 353-445-155 92-327 159-510 195-147-156-356-254-586-254-445 0-804 361-804 804 0 63 7 124 21 183z"/></g></svg>